{"title":"Chennai Express (2013) 1CD NEW SOURCE MC DVDScr x264 DevIL","uid":8809806,"size":734106978,"categoryP":"video","categoryS":"movies","magnet":"?xt=urn:btih:4f35b8f94f65044e689821b28d659a325b69fa5c&amp;dn=Chennai+Express+%282013%29+1CD+NEW+SOURCE+MC+DVDScr+x264+DevIL&amp;tr=udp%3A%2F%2Ftracker.openbittorrent.com%3A80&amp;tr=udp%3A%2F%2Fopen.demonii.com%3A1337&amp;tr=udp%3A%2F%2Ftracker.coppersurfer.tk%3A6969&amp;tr=udp%3A%2F%2Fexodus.desync.com%3A6969","seeders":2,"leechers":0,"uploader":"shaan666","files":-1,"time":1376430959,"description":" &lt;a href=&quot;http://www.shotpix.com/photos/20130813137642229117620.jpg&quot; rel=&quot;nofollow&quot; target=&quot;_NEW&quot;&gt;http://www.shotpix.com/photos/20130813137642229117620.jpg&lt;/a&gt;\n\n\n[B]INFO[/B]\n\n[code]General\nComplete name                            :Chennai Express (2013) 1CD MC DVDScr [[ New Source ]] - DevIL.mp4\nFormat                                   : MPEG-4\nFormat profile                           : Base Media\nCodec ID                                 : isom\nFile size                                : 700 MiB\nDuration                                 : 2h 19mn\nOverall bit rate mode                    : Variable\nOverall bit rate                         : 704 Kbps\n\n\nVideo\nID                                       : 1\nFormat                                   : AVC\nFormat/Info                              : Advanced Video Codec\nFormat profile                           : &lt;a class=&quot;__cf_email__&quot; href=&quot;/cdn-cgi/l/email-protection&quot; data-cfemail=&quot;c880a1afa08884fae6f9&quot;&gt;[email&amp;#160;protected]&lt;/a&gt;&lt;script cf-hash='f9e31' type=&quot;text/javascript&quot;&gt;\n/* &lt;![CDATA[ */!function(){try{var t=&quot;currentScript&quot;in document?document.currentScript:function(){for(var t=document.getElementsByTagName(&quot;script&quot;),e=t.length;e--;)if(t[e].getAttribute(&quot;cf-hash&quot;))return t[e]}();if(t&amp;&amp;t.previousSibling){var e,r,n,i,c=t.previousSibling,a=c.getAttribute(&quot;data-cfemail&quot;);if(a){for(e=&quot;&quot;,r=parseInt(a.substr(0,2),16),n=2;a.length-n;n+=2)i=parseInt(a.substr(n,2),16)^r,e+=String.fromCharCode(i);e=document.createTextNode(e),c.parentNode.replaceChild(e,c)}}}catch(u){}}();/* ]]&gt; */&lt;/script&gt;\nFormat settings, CABAC                   : Yes\nFormat settings, ReFrames                : 4 frames\nCodec ID                                 : avc1\nCodec ID/Info                            : Advanced Video Coding\nDuration                                 : 2h 19mn\nBit rate                                 : 637 Kbps\nMaximum bit rate                         : 1 745 Kbps\nWidth                                    : 640 pixels\nHeight                                   : 240 pixels\nDisplay aspect ratio                     : 2.667\nFrame rate mode                          : Constant\nFrame rate                               : 23.976 fps\nColor space                              : YUV\nChroma subsampling                       : 4:2:0\nBit depth                                : 8 bits\nScan type                                : Progressive\nBits/(Pixel*Frame)                       : 0.173\nStream size                              : 633 MiB (90%)\n\n\nAudio\nID                                       : 2\nFormat                                   : AAC\nFormat/Info                              : Advanced Audio Codec\nFormat profile                           : HE-AAC / LC\nCodec ID                                 : 40\nDuration                                 : 2h 19mn\nBit rate mode                            : Variable\nBit rate                                 : 64.0 Kbps\nMaximum bit rate                         : 71.8 Kbps\nChannel(s)                               : 2 channels\nChannel positions                        : Front: L R\nSampling rate                            : 48.0 KHz / 24.0 KHz\nCompression mode                         : Lossy\nStream size                              : 63.6 MiB (9%)\n[/code]\n\n\n\n[B]SCREEN SHOTS[/B]\n\n &lt;a href=&quot;\nhttp://www.shotpix.com/photos/20130813137642229754863.png&quot; rel=&quot;nofollow&quot; target=&quot;_NEW&quot;&gt;\nhttp://www.shotpix.com/photos/20130813137642229754863.png&lt;/a&gt; &lt;a href=&quot;\nhttp://www.shotpix.com/photos/20130813137642230210274.png&quot; rel=&quot;nofollow&quot; target=&quot;_NEW&quot;&gt;\nhttp://www.shotpix.com/photos/20130813137642230210274.png&lt;/a&gt; &lt;a href=&quot;\nhttp://www.shotpix.com/photos/20130813137642230209298.png&quot; rel=&quot;nofollow&quot; target=&quot;_NEW&quot;&gt;\nhttp://www.shotpix.com/photos/20130813137642230209298.png&lt;/a&gt; &lt;a href=&quot;\nhttp://www.shotpix.com/photos/20130813137642230143625.png&quot; rel=&quot;nofollow&quot; target=&quot;_NEW&quot;&gt;\nhttp://www.shotpix.com/photos/20130813137642230143625.png&lt;/a&gt; &lt;a href=&quot;\nhttp://www.shotpix.com/photos/20130813137642230143438.png&quot; rel=&quot;nofollow&quot; target=&quot;_NEW&quot;&gt;\nhttp://www.shotpix.com/photos/20130813137642230143438.png&lt;/a&gt; &lt;a href=&quot;\nhttp://www.shotpix.com/photos/20130813137642230805356.png&quot; rel=&quot;nofollow&quot; target=&quot;_NEW&quot;&gt;\nhttp://www.shotpix.com/photos/20130813137642230805356.png&lt;/a&gt; &lt;a href=&quot;\nhttp://www.shotpix.com/photos/20130813137642231434523.png&quot; rel=&quot;nofollow&quot; target=&quot;_NEW&quot;&gt;\nhttp://www.shotpix.com/photos/20130813137642231434523.png&lt;/a&gt;","torrent":{"xt":"urn:btih:4f35b8f94f65044e689821b28d659a325b69fa5c","amp;dn":"Chennai+Express+%282013%29+1CD+NEW+SOURCE+MC+DVDScr+x264+DevIL","amp;tr":["udp%3A%2F%2Ftracker.openbittorrent.com%3A80","udp%3A%2F%2Fopen.demonii.com%3A1337","udp%3A%2F%2Ftracker.coppersurfer.tk%3A6969","udp%3A%2F%2Fexodus.desync.com%3A6969"],"infoHash":"4f35b8f94f65044e689821b28d659a325b69fa5c","infoHashBuffer":{"type":"Buffer","data":[79,53,184,249,79,101,4,78,104,152,33,178,141,101,154,50,91,105,250,92]},"announce":[],"urlList":[]}}